<svg width="23" height="23" viewBox="0 0 23 23" fill="none" xmlns="http://www.w3.org/2000/svg">
<path d="M20.0205 17.2422C24.7031 11.2803 20.8604 5.86035 20.8604 5.86035C23.0771 10.0498 18.8389 14.1855 18.8389 14.1855C23.9658 5.81152 15.8848 0.928711 15.8848 0.928711C20.6162 4.47852 15.3916 10.2402 15.3916 10.2402C19.5811 17.9746 12.042 21.4756 12.042 21.4756C12.042 21.4756 12.0225 20.6504 11.9346 17.291C12.1445 17.5107 13.6191 19.0586 13.6191 19.0586L12.4375 16.7441L15.4941 16.2998L12.4375 15.8555L13.4238 13.1455L11.8906 15.3867C11.7832 11.1045 11.5098 0.489258 11.5049 0.401367V0.28418V0.333008V0.28418V0.401367C11.5049 0.450195 11.2314 11.0947 11.1191 15.3867L9.58594 13.1455L10.5723 15.8555L7.51562 16.2998L10.5723 16.7441L9.39062 19.0586L11.0752 17.291C10.9873 20.6504 10.9678 21.4756 10.9678 21.4756C10.9678 21.4756 3.42871 17.9746 7.61816 10.2402C7.61816 10.2402 2.39355 4.47363 7.125 0.928711C7.125 0.928711 -0.956055 5.80664 4.1709 14.1855C4.1709 14.1855 -0.0673828 10.0449 2.14941 5.86035C2.14941 5.86035 -1.69336 11.2803 2.98926 17.2422C2.98926 17.2422 1.70996 16.4561 0.577148 13.4482C0.577148 13.4482 1.40234 22.3984 11.417 22.5156H11.6172C21.627 22.3984 22.457 13.4482 22.457 13.4482C21.3047 16.4512 20.0205 17.2422 20.0205 17.2422V17.2422Z" fill="white"/>
</svg>
